# xmcd
#
# Track frame offsets:
#	150
#	15912
#	34619
#	46634
#	60749
#	75236
#	98331
#	113841
#	119766
#	131318
#	142809
#	154944
#	166012
#	187960
#	200461
#	214252
#	224024
#	239952
#	257881
#	271812
#	279361
#	291040
#
# Disc length: 4306 seconds
#
# Revision: 1
# Processed by: cddbd v1.5.2PL0 Copyright (c) Steve Scherf et al.
# Submitted via: audiograbber 1.83.01
#
DISCID=3010d016
DTITLE=Various Artist - Macca's Top 100 [Disc 5]
DYEAR=2012
DGENRE=Country
TTITLE0=Tony McKenna - Sunday Morning
TTITLE1=Neil Murray - He Was Born
TTITLE2=Jane Saunders - Dancing In The Rain
TTITLE3=The Settlers - The Cooma Cavaliers
TTITLE4=Neil Adam - The Pickers Train
TTITLE5=Hugh McDonald - Spirit Of The Land
TTITLE6=Noel Murphy - Murphy And The Bricks
TTITLE7=Drummond 'Wattle' Singers - Song Of The Wattle
TTITLE8=Denis Morgan with Dual Connection - Henry Lawson
TTITLE9=Isabella A Capella - Carra Barra Wirra Canna
TTITLE10=Macca with Bob Barnard Quartet - Black Stump Stomp
TTITLE11=Andra Muhoberac - Carol For The Wheat Country
TTITLE12=Pigrams - Johnny Walker's Shoes
TTITLE13=James Pegler - Carol Of The Birds
TTITLE14=Digger Revell - Let's Hear It For The Working Man
TTITLE15=Alan Chinn - Baradine
TTITLE16=Frankie Davidson with Dawn Lake - Not Bloody Golf Again
TTITLE17=Us Not Them - Salvation Jane
TTITLE18=Purple Dentists - Merino
TTITLE19=Dermot Dorgan - Cockroach Rap
TTITLE20=Gumboot Band - Australia All Over Theme In Brass
TTITLE21=Ian McNamara - Macca's Second Symphony Of Australian Birds
EXTD=
EXTT0=
EXTT1=
EXTT2=
EXTT3=
EXTT4=
EXTT5=
EXTT6=
EXTT7=
EXTT8=
EXTT9=
EXTT10=
EXTT11=
EXTT12=
EXTT13=
EXTT14=
EXTT15=
EXTT16=
EXTT17=
EXTT18=
EXTT19=
EXTT20=
EXTT21=
PLAYORDER=
